<svg width="1024" height="753" viewBox="0 0 1024 753" fill="none" xmlns="http://www.w3.org/2000/svg">
<g clip-path="url(#clip0_122_130)">
<rect width="1024" height="753" fill="#121214"/>
<g opacity="0.2" filter="url(#filter0_f_122_130)">
<ellipse cx="511.5" cy="113" rx="670.5" ry="350" fill="#338AF3"/>
</g>
<path d="M32.0349 349C33.5302 349 34.6622 349.63 35.4308 350.891C36.2134 352.138 36.6047 353.953 36.6047 356.336C36.6047 358.719 36.2134 360.541 35.4308 361.802C34.6622 363.063 33.5302 363.693 32.0349 363.693C30.5536 363.693 29.4216 363.063 28.639 361.802C27.8564 360.541 27.4651 358.719 27.4651 356.336C27.4651 353.967 27.8564 352.152 28.639 350.891C29.4216 349.63 30.5536 349 32.0349 349ZM28.9534 356.336C28.9534 358.026 29.1072 359.35 29.4146 360.306L34.0683 351.099C33.5791 350.448 32.9013 350.122 32.0349 350.122C31.0706 350.122 30.316 350.635 29.771 351.66C29.2259 352.672 28.9534 354.23 28.9534 356.336ZM32.0349 362.55C33.0131 362.55 33.7748 362.044 34.3198 361.033C34.8648 360.008 35.1373 358.442 35.1373 356.336C35.1373 354.549 34.9627 353.163 34.6133 352.18L29.9596 361.469C30.4627 362.19 31.1545 362.55 32.0349 362.55Z" fill="url(#paint0_linear_122_130)" fill-opacity="0.6"/>
<path d="M33.2926 386.135H36.3741V387.236H28.3874V386.135H31.9511V374.455L28.5551 376.471L27.9682 375.536L32.1607 372.959H33.2926V386.135Z" fill="url(#paint1_linear_122_130)" fill-opacity="0.6"/>
<path d="M32.0349 396.502C33.5302 396.502 34.6622 397.133 35.4308 398.393C36.2134 399.64 36.6047 401.455 36.6047 403.838C36.6047 406.221 36.2134 408.043 35.4308 409.304C34.6622 410.565 33.5302 411.195 32.0349 411.195C30.5536 411.195 29.4216 410.565 28.639 409.304C27.8564 408.043 27.4651 406.221 27.4651 403.838C27.4651 401.469 27.8564 399.654 28.639 398.393C29.4216 397.133 30.5536 396.502 32.0349 396.502ZM28.9534 403.838C28.9534 405.529 29.1072 406.852 29.4146 407.808L34.0683 398.601C33.5791 397.95 32.9013 397.624 32.0349 397.624C31.0706 397.624 30.316 398.137 29.771 399.162C29.2259 400.174 28.9534 401.732 28.9534 403.838ZM32.0349 410.052C33.0131 410.052 33.7748 409.546 34.3198 408.535C34.8648 407.51 35.1373 405.944 35.1373 403.838C35.1373 402.051 34.9627 400.665 34.6133 399.682L29.9596 408.971C30.4627 409.692 31.1545 410.052 32.0349 410.052Z" fill="url(#paint2_linear_122_130)" fill-opacity="0.6"/>
<path d="M33.2926 433.637H36.3741V434.738H28.3874V433.637H31.9511V421.957L28.5551 423.973L27.9682 423.038L32.1607 420.461H33.2926V433.637Z" fill="url(#paint3_linear_122_130)" fill-opacity="0.6"/>
<path d="M33.2926 457.388H36.3741V458.489H28.3874V457.388H31.9511V445.708L28.5551 447.724L27.9682 446.789L32.1607 444.212H33.2926V457.388Z" fill="url(#paint4_linear_122_130)" fill-opacity="0.6"/>
<path d="M32.0349 467.755C33.5302 467.755 34.6622 468.386 35.4308 469.646C36.2134 470.893 36.6047 472.708 36.6047 475.091C36.6047 477.474 36.2134 479.296 35.4308 480.557C34.6622 481.818 33.5302 482.448 32.0349 482.448C30.5536 482.448 29.4216 481.818 28.639 480.557C27.8564 479.296 27.4651 477.474 27.4651 475.091C27.4651 472.722 27.8564 470.907 28.639 469.646C29.4216 468.386 30.5536 467.755 32.0349 467.755ZM28.9534 475.091C28.9534 476.782 29.1072 478.105 29.4146 479.061L34.0683 469.854C33.5791 469.203 32.9013 468.878 32.0349 468.878C31.0706 468.878 30.316 469.39 29.771 470.415C29.2259 471.427 28.9534 472.985 28.9534 475.091ZM32.0349 481.305C33.0131 481.305 33.7748 480.8 34.3198 479.788C34.8648 478.763 35.1373 477.197 35.1373 475.091C35.1373 473.304 34.9627 471.919 34.6133 470.935L29.9596 480.225C30.4627 480.945 31.1545 481.305 32.0349 481.305Z" fill="url(#paint5_linear_122_130)" fill-opacity="0.6"/>
<path d="M33.2926 504.89H36.3741V505.992H28.3874V504.89H31.9511V493.21L28.5551 495.226L27.9682 494.291L32.1607 491.714H33.2926V504.89Z" fill="url(#paint6_linear_122_130)" fill-opacity="0.6"/>
<path d="M32.0349 515.257C33.5302 515.257 34.6622 515.888 35.4308 517.149C36.2134 518.396 36.6047 520.211 36.6047 522.594C36.6047 524.977 36.2134 526.798 35.4308 528.059C34.6622 529.32 33.5302 529.95 32.0349 529.95C30.5536 529.95 29.4216 529.32 28.639 528.059C27.8564 526.798 27.4651 524.977 27.4651 522.594C27.4651 520.224 27.8564 518.409 28.639 517.149C29.4216 515.888 30.5536 515.257 32.0349 515.257ZM28.9534 522.594C28.9534 524.284 29.1072 525.607 29.4146 526.563L34.0683 517.356C33.5791 516.705 32.9013 516.38 32.0349 516.38C31.0706 516.38 30.316 516.892 29.771 517.918C29.2259 518.929 28.9534 520.488 28.9534 522.594ZM32.0349 528.807C33.0131 528.807 33.7748 528.302 34.3198 527.29C34.8648 526.265 35.1373 524.699 35.1373 522.594C35.1373 520.806 34.9627 519.421 34.6133 518.437L29.9596 527.727C30.4627 528.447 31.1545 528.807 32.0349 528.807Z" fill="url(#paint7_linear_122_130)" fill-opacity="0.6"/>
<path d="M32.0349 539.008C33.5302 539.008 34.6622 539.639 35.4308 540.9C36.2134 542.147 36.6047 543.962 36.6047 546.345C36.6047 548.728 36.2134 550.549 35.4308 551.81C34.6622 553.071 33.5302 553.701 32.0349 553.701C30.5536 553.701 29.4216 553.071 28.639 551.81C27.8564 550.549 27.4651 548.728 27.4651 546.345C27.4651 543.975 27.8564 542.16 28.639 540.9C29.4216 539.639 30.5536 539.008 32.0349 539.008ZM28.9534 546.345C28.9534 548.035 29.1072 549.358 29.4146 550.314L34.0683 541.107C33.5791 540.456 32.9013 540.131 32.0349 540.131C31.0706 540.131 30.316 540.643 29.771 541.669C29.2259 542.68 28.9534 544.239 28.9534 546.345ZM32.0349 552.558C33.0131 552.558 33.7748 552.053 34.3198 551.041C34.8648 550.016 35.1373 548.451 35.1373 546.345C35.1373 544.557 34.9627 543.172 34.6133 542.188L29.9596 551.478C30.4627 552.198 31.1545 552.558 32.0349 552.558Z" fill="url(#paint8_linear_122_130)" fill-opacity="0.6"/>
<path d="M33.2926 576.143H36.3741V577.245H28.3874V576.143H31.9511V564.464L28.5551 566.48L27.9682 565.544L32.1607 562.967H33.2926V576.143Z" fill="url(#paint9_linear_122_130)" fill-opacity="0.6"/>
<path d="M32.0349 586.511C33.5302 586.511 34.6622 587.141 35.4308 588.402C36.2134 589.649 36.6047 591.464 36.6047 593.847C36.6047 596.23 36.2134 598.052 35.4308 599.312C34.6622 600.573 33.5302 601.204 32.0349 601.204C30.5536 601.204 29.4216 600.573 28.639 599.312C27.8564 598.052 27.4651 596.23 27.4651 593.847C27.4651 591.478 27.8564 589.663 28.639 588.402C29.4216 587.141 30.5536 586.511 32.0349 586.511ZM28.9534 593.847C28.9534 595.537 29.1072 596.86 29.4146 597.816L34.0683 588.61C33.5791 587.958 32.9013 587.633 32.0349 587.633C31.0706 587.633 30.316 588.145 29.771 589.171C29.2259 590.182 28.9534 591.741 28.9534 593.847ZM32.0349 600.061C33.0131 600.061 33.7748 599.555 34.3198 598.543C34.8648 597.518 35.1373 595.953 35.1373 593.847C35.1373 592.059 34.9627 590.674 34.6133 589.69L29.9596 598.98C30.4627 599.7 31.1545 600.061 32.0349 600.061Z" fill="url(#paint10_linear_122_130)" fill-opacity="0.6"/>
<path d="M33.2926 623.645H36.3741V624.747H28.3874V623.645H31.9511V611.966L28.5551 613.982L27.9682 613.046L32.1607 610.469H33.2926V623.645Z" fill="url(#paint11_linear_122_130)" fill-opacity="0.6"/>
<path d="M33.2926 647.396H36.3741V648.498H28.3874V647.396H31.9511V635.717L28.5551 637.733L27.9682 636.798L32.1607 634.221H33.2926V647.396Z" fill="url(#paint12_linear_122_130)" fill-opacity="0.6"/>
<path d="M70.9651 396.502C72.4604 396.502 73.5924 397.133 74.361 398.393C75.1436 399.64 75.5349 401.455 75.5349 403.838C75.5349 406.221 75.1436 408.043 74.361 409.304C73.5924 410.565 72.4604 411.195 70.9651 411.195C69.4838 411.195 68.3518 410.565 67.5692 409.304C66.7866 408.043 66.3953 406.221 66.3953 403.838C66.3953 401.469 66.7866 399.654 67.5692 398.393C68.3518 397.133 69.4838 396.502 70.9651 396.502ZM67.8836 403.838C67.8836 405.529 68.0374 406.852 68.3448 407.808L72.9985 398.601C72.5093 397.95 71.8315 397.624 70.9651 397.624C70.0008 397.624 69.2462 398.137 68.7012 399.162C68.1561 400.174 67.8836 401.732 67.8836 403.838ZM70.9651 410.052C71.9433 410.052 72.705 409.546 73.25 408.535C73.795 407.51 74.0675 405.944 74.0675 403.838C74.0675 402.051 73.8928 400.665 73.5435 399.682L68.8898 408.971C69.3929 409.692 70.0847 410.052 70.9651 410.052Z" fill="url(#paint13_linear_122_130)" fill-opacity="0.6"/>
<path d="M72.2228 433.637H75.3043V434.738H67.3176V433.637H70.8812V421.957L67.4853 423.973L66.8984 423.038L71.0909 420.461H72.2228V433.637Z" fill="url(#paint14_linear_122_130)" fill-opacity="0.6"/>
<path d="M70.9651 444.004C72.4604 444.004 73.5924 444.635 74.361 445.895C75.1436 447.142 75.5349 448.957 75.5349 451.34C75.5349 453.723 75.1436 455.545 74.361 456.806C73.5924 458.067 72.4604 458.697 70.9651 458.697C69.4838 458.697 68.3518 458.067 67.5692 456.806C66.7866 455.545 66.3953 453.723 66.3953 451.34C66.3953 448.971 66.7866 447.156 67.5692 445.895C68.3518 444.635 69.4838 444.004 70.9651 444.004ZM67.8836 451.34C67.8836 453.031 68.0374 454.354 68.3448 455.31L72.9985 446.103C72.5093 445.452 71.8315 445.126 70.9651 445.126C70.0008 445.126 69.2462 445.639 68.7012 446.664C68.1561 447.676 67.8836 449.234 67.8836 451.34ZM70.9651 457.554C71.9433 457.554 72.705 457.049 73.25 456.037C73.795 455.012 74.0675 453.446 74.0675 451.34C74.0675 449.553 73.8928 448.168 73.5435 447.184L68.8898 456.474C69.3929 457.194 70.0847 457.554 70.9651 457.554Z" fill="url(#paint15_linear_122_130)" fill-opacity="0.6"/>
<path d="M70.9651 467.755C72.4604 467.755 73.5924 468.386 74.361 469.646C75.1436 470.893 75.5349 472.708 75.5349 475.091C75.5349 477.474 75.1436 479.296 74.361 480.557C73.5924 481.818 72.4604 482.448 70.9651 482.448C69.4838 482.448 68.3518 481.818 67.5692 480.557C66.7866 479.296 66.3953 477.474 66.3953 475.091C66.3953 472.722 66.7866 470.907 67.5692 469.646C68.3518 468.386 69.4838 467.755 70.9651 467.755ZM67.8836 475.091C67.8836 476.782 68.0374 478.105 68.3448 479.061L72.9985 469.854C72.5093 469.203 71.8315 468.878 70.9651 468.878C70.0008 468.878 69.2462 469.39 68.7012 470.415C68.1561 471.427 67.8836 472.985 67.8836 475.091ZM70.9651 481.305C71.9433 481.305 72.705 480.8 73.25 479.788C73.795 478.763 74.0675 477.197 74.0675 475.091C74.0675 473.304 73.8928 471.919 73.5435 470.935L68.8898 480.225C69.3929 480.945 70.0847 481.305 70.9651 481.305Z" fill="url(#paint16_linear_122_130)" fill-opacity="0.6"/>
<path d="M72.2228 504.89H75.3043V505.992H67.3176V504.89H70.8812V493.21L67.4853 495.226L66.8984 494.291L71.0909 491.714H72.2228V504.89Z" fill="url(#paint17_linear_122_130)" fill-opacity="0.6"/>
<path d="M70.9651 515.257C72.4604 515.257 73.5924 515.888 74.361 517.149C75.1436 518.396 75.5349 520.211 75.5349 522.594C75.5349 524.977 75.1436 526.798 74.361 528.059C73.5924 529.32 72.4604 529.95 70.9651 529.95C69.4838 529.95 68.3518 529.32 67.5692 528.059C66.7866 526.798 66.3953 524.977 66.3953 522.594C66.3953 520.224 66.7866 518.409 67.5692 517.149C68.3518 515.888 69.4838 515.257 70.9651 515.257ZM67.8836 522.594C67.8836 524.284 68.0374 525.607 68.3448 526.563L72.9985 517.356C72.5093 516.705 71.8315 516.38 70.9651 516.38C70.0008 516.38 69.2462 516.892 68.7012 517.918C68.1561 518.929 67.8836 520.488 67.8836 522.594ZM70.9651 528.807C71.9433 528.807 72.705 528.302 73.25 527.29C73.795 526.265 74.0675 524.699 74.0675 522.594C74.0675 520.806 73.8928 519.421 73.5435 518.437L68.8898 527.727C69.3929 528.447 70.0847 528.807 70.9651 528.807Z" fill="url(#paint18_linear_122_130)" fill-opacity="0.6"/>
<path d="M72.2228 552.392H75.3043V553.494H67.3176V552.392H70.8812V540.713L67.4853 542.728L66.8984 541.793L71.0909 539.216H72.2228V552.392Z" fill="url(#paint19_linear_122_130)" fill-opacity="0.6"/>
<path d="M70.9651 562.76C72.4604 562.76 73.5924 563.39 74.361 564.651C75.1436 565.898 75.5349 567.713 75.5349 570.096C75.5349 572.479 75.1436 574.301 74.361 575.561C73.5924 576.822 72.4604 577.453 70.9651 577.453C69.4838 577.453 68.3518 576.822 67.5692 575.561C66.7866 574.301 66.3953 572.479 66.3953 570.096C66.3953 567.726 66.7866 565.911 67.5692 564.651C68.3518 563.39 69.4838 562.76 70.9651 562.76ZM67.8836 570.096C67.8836 571.786 68.0374 573.109 68.3448 574.065L72.9985 564.859C72.5093 564.207 71.8315 563.882 70.9651 563.882C70.0008 563.882 69.2462 564.394 68.7012 565.42C68.1561 566.431 67.8836 567.99 67.8836 570.096ZM70.9651 576.31C71.9433 576.31 72.705 575.804 73.25 574.792C73.795 573.767 74.0675 572.202 74.0675 570.096C74.0675 568.308 73.8928 566.923 73.5435 565.939L68.8898 575.229C69.3929 575.949 70.0847 576.31 70.9651 576.31Z" fill="url(#paint20_linear_122_130)" fill-opacity="0.6"/>
<path d="M70.9651 586.511C72.4604 586.511 73.5924 587.141 74.361 588.402C75.1436 589.649 75.5349 591.464 75.5349 593.847C75.5349 596.23 75.1436 598.052 74.361 599.312C73.5924 600.573 72.4604 601.204 70.9651 601.204C69.4838 601.204 68.3518 600.573 67.5692 599.312C66.7866 598.052 66.3953 596.23 66.3953 593.847C66.3953 591.478 66.7866 589.663 67.5692 588.402C68.3518 587.141 69.4838 586.511 70.9651 586.511ZM67.8836 593.847C67.8836 595.537 68.0374 596.86 68.3448 597.816L72.9985 588.61C72.5093 587.958 71.8315 587.633 70.9651 587.633C70.0008 587.633 69.2462 588.145 68.7012 589.171C68.1561 590.182 67.8836 591.741 67.8836 593.847ZM70.9651 600.061C71.9433 600.061 72.705 599.555 73.25 598.543C73.795 597.518 74.0675 595.953 74.0675 593.847C74.0675 592.059 73.8928 590.674 73.5435 589.69L68.8898 598.98C69.3929 599.7 70.0847 600.061 70.9651 600.061Z" fill="url(#paint21_linear_122_130)" fill-opacity="0.6"/>
<path d="M72.2228 623.645H75.3043V624.747H67.3176V623.645H70.8812V611.966L67.4853 613.982L66.8984 613.046L71.0909 610.469H72.2228V623.645Z" fill="url(#paint22_linear_122_130)" fill-opacity="0.6"/>
<path d="M70.9651 634.013C72.4604 634.013 73.5924 634.643 74.361 635.904C75.1436 637.151 75.5349 638.966 75.5349 641.349C75.5349 643.732 75.1436 645.554 74.361 646.815C73.5924 648.075 72.4604 648.706 70.9651 648.706C69.4838 648.706 68.3518 648.075 67.5692 646.815C66.7866 645.554 66.3953 643.732 66.3953 641.349C66.3953 638.98 66.7866 637.165 67.5692 635.904C68.3518 634.643 69.4838 634.013 70.9651 634.013ZM67.8836 641.349C67.8836 643.039 68.0374 644.362 68.3448 645.318L72.9985 636.112C72.5093 635.461 71.8315 635.135 70.9651 635.135C70.0008 635.135 69.2462 635.648 68.7012 636.673C68.1561 637.684 67.8836 639.243 67.8836 641.349ZM70.9651 647.563C71.9433 647.563 72.705 647.057 73.25 646.046C73.795 645.02 74.0675 643.455 74.0675 641.349C74.0675 639.562 73.8928 638.176 73.5435 637.192L68.8898 646.482C69.3929 647.202 70.0847 647.563 70.9651 647.563Z" fill="url(#paint23_linear_122_130)" fill-opacity="0.6"/>
<path d="M72.2228 671.148H75.3043V672.249H67.3176V671.148H70.8812V659.468L67.4853 661.484L66.8984 660.549L71.0909 657.972H72.2228V671.148Z" fill="url(#paint24_linear_122_130)" fill-opacity="0.6"/>
<path d="M72.2228 694.899H75.3043V696H67.3176V694.899H70.8812V683.219L67.4853 685.235L66.8984 684.3L71.0909 681.723H72.2228V694.899Z" fill="url(#paint25_linear_122_130)" fill-opacity="0.6"/>
<path d="M12.5698 420.253C14.0651 420.253 15.1971 420.884 15.9657 422.144C16.7483 423.391 17.1396 425.206 17.1396 427.589C17.1396 429.972 16.7483 431.794 15.9657 433.055C15.1971 434.316 14.0651 434.946 12.5698 434.946C11.0885 434.946 9.95649 434.316 9.1739 433.055C8.3913 431.794 8 429.972 8 427.589C8 425.22 8.3913 423.405 9.1739 422.144C9.95649 420.884 11.0885 420.253 12.5698 420.253ZM9.48833 427.589C9.48833 429.28 9.64206 430.603 9.9495 431.559L14.6032 422.352C14.114 421.701 13.4363 421.375 12.5698 421.375C11.6055 421.375 10.8509 421.888 10.3059 422.913C9.76084 423.925 9.48833 425.483 9.48833 427.589ZM12.5698 433.803C13.5481 433.803 14.3097 433.297 14.8547 432.286C15.3997 431.261 15.6722 429.695 15.6722 427.589C15.6722 425.802 15.4976 424.417 15.1482 423.433L10.4945 432.722C10.9976 433.443 11.6894 433.803 12.5698 433.803Z" fill="url(#paint26_linear_122_130)" fill-opacity="0.6"/>
<path d="M12.5698 444.004C14.0651 444.004 15.1971 444.635 15.9657 445.895C16.7483 447.142 17.1396 448.957 17.1396 451.34C17.1396 453.723 16.7483 455.545 15.9657 456.806C15.1971 458.067 14.0651 458.697 12.5698 458.697C11.0885 458.697 9.95649 458.067 9.1739 456.806C8.3913 455.545 8 453.723 8 451.34C8 448.971 8.3913 447.156 9.1739 445.895C9.95649 444.635 11.0885 444.004 12.5698 444.004ZM9.48833 451.34C9.48833 453.031 9.64206 454.354 9.9495 455.31L14.6032 446.103C14.114 445.452 13.4363 445.126 12.5698 445.126C11.6055 445.126 10.8509 445.639 10.3059 446.664C9.76084 447.676 9.48833 449.234 9.48833 451.34ZM12.5698 457.554C13.5481 457.554 14.3097 457.049 14.8547 456.037C15.3997 455.012 15.6722 453.446 15.6722 451.34C15.6722 449.553 15.4976 448.168 15.1482 447.184L10.4945 456.474C10.9976 457.194 11.6894 457.554 12.5698 457.554Z" fill="url(#paint27_linear_122_130)" fill-opacity="0.6"/>
<path d="M13.8276 481.139H16.909V482.24H8.92235V481.139H12.486V469.459L9.09005 471.475L8.5031 470.54L12.6956 467.963H13.8276V481.139Z" fill="url(#paint28_linear_122_130)" fill-opacity="0.6"/>
<path d="M12.5698 491.506C14.0651 491.506 15.1971 492.137 15.9657 493.398C16.7483 494.644 17.1396 496.459 17.1396 498.842C17.1396 501.225 16.7483 503.047 15.9657 504.308C15.1971 505.569 14.0651 506.199 12.5698 506.199C11.0885 506.199 9.95649 505.569 9.1739 504.308C8.3913 503.047 8 501.225 8 498.842C8 496.473 8.3913 494.658 9.1739 493.398C9.95649 492.137 11.0885 491.506 12.5698 491.506ZM9.48833 498.842C9.48833 500.533 9.64206 501.856 9.9495 502.812L14.6032 493.605C14.114 492.954 13.4363 492.629 12.5698 492.629C11.6055 492.629 10.8509 493.141 10.3059 494.166C9.76084 495.178 9.48833 496.737 9.48833 498.842ZM12.5698 505.056C13.5481 505.056 14.3097 504.551 14.8547 503.539C15.3997 502.514 15.6722 500.948 15.6722 498.842C15.6722 497.055 15.4976 495.67 15.1482 494.686L10.4945 503.976C10.9976 504.696 11.6894 505.056 12.5698 505.056Z" fill="url(#paint29_linear_122_130)" fill-opacity="0.6"/>
<path d="M13.8276 528.641H16.909V529.743H8.92235V528.641H12.486V516.962L9.09005 518.977L8.5031 518.042L12.6956 515.465H13.8276V528.641Z" fill="url(#paint30_linear_122_130)" fill-opacity="0.6"/>
<path d="M13.8276 552.392H16.909V553.494H8.92235V552.392H12.486V540.713L9.09005 542.728L8.5031 541.793L12.6956 539.216H13.8276V552.392Z" fill="url(#paint31_linear_122_130)" fill-opacity="0.6"/>
<path d="M52.7577 386.135H55.8392V387.236H47.8525V386.135H51.4162V374.455L48.0202 376.471L47.4333 375.536L51.6258 372.959H52.7577V386.135Z" fill="url(#paint32_linear_122_130)" fill-opacity="0.6"/>
<path d="M51.5 396.502C52.9953 396.502 54.1273 397.133 54.8959 398.393C55.6785 399.64 56.0698 401.455 56.0698 403.838C56.0698 406.221 55.6785 408.043 54.8959 409.304C54.1273 410.565 52.9953 411.195 51.5 411.195C50.0187 411.195 48.8867 410.565 48.1041 409.304C47.3215 408.043 46.9302 406.221 46.9302 403.838C46.9302 401.469 47.3215 399.654 48.1041 398.393C48.8867 397.133 50.0187 396.502 51.5 396.502ZM48.4185 403.838C48.4185 405.529 48.5723 406.852 48.8797 407.808L53.5334 398.601C53.0442 397.95 52.3664 397.624 51.5 397.624C50.5357 397.624 49.7811 398.137 49.2361 399.162C48.691 400.174 48.4185 401.732 48.4185 403.838ZM51.5 410.052C52.4782 410.052 53.2399 409.546 53.7849 408.535C54.3299 407.51 54.6024 405.944 54.6024 403.838C54.6024 402.051 54.4277 400.665 54.0784 399.682L49.4247 408.971C49.9278 409.692 50.6196 410.052 51.5 410.052Z" fill="url(#paint33_linear_122_130)" fill-opacity="0.6"/>
<path d="M52.7577 433.637H55.8392V434.738H47.8525V433.637H51.4162V421.957L48.0202 423.973L47.4333 423.038L51.6258 420.461H52.7577V433.637Z" fill="url(#paint34_linear_122_130)" fill-opacity="0.6"/>
<path d="M52.7577 457.388H55.8392V458.489H47.8525V457.388H51.4162V445.708L48.0202 447.724L47.4333 446.789L51.6258 444.212H52.7577V457.388Z" fill="url(#paint35_linear_122_130)" fill-opacity="0.6"/>
<path d="M51.5 467.755C52.9953 467.755 54.1273 468.386 54.8959 469.646C55.6785 470.893 56.0698 472.708 56.0698 475.091C56.0698 477.474 55.6785 479.296 54.8959 480.557C54.1273 481.818 52.9953 482.448 51.5 482.448C50.0187 482.448 48.8867 481.818 48.1041 480.557C47.3215 479.296 46.9302 477.474 46.9302 475.091C46.9302 472.722 47.3215 470.907 48.1041 469.646C48.8867 468.386 50.0187 467.755 51.5 467.755ZM48.4185 475.091C48.4185 476.782 48.5723 478.105 48.8797 479.061L53.5334 469.854C53.0442 469.203 52.3664 468.878 51.5 468.878C50.5357 468.878 49.7811 469.39 49.2361 470.415C48.691 471.427 48.4185 472.985 48.4185 475.091ZM51.5 481.305C52.4782 481.305 53.2399 480.8 53.7849 479.788C54.3299 478.763 54.6024 477.197 54.6024 475.091C54.6024 473.304 54.4277 471.919 54.0784 470.935L49.4247 480.225C49.9278 480.945 50.6196 481.305 51.5 481.305Z" fill="url(#paint36_linear_122_130)" fill-opacity="0.6"/>
<path d="M52.7577 504.89H55.8392V505.992H47.8525V504.89H51.4162V493.21L48.0202 495.226L47.4333 494.291L51.6258 491.714H52.7577V504.89Z" fill="url(#paint37_linear_122_130)" fill-opacity="0.6"/>
<path d="M52.7577 528.641H55.8392V529.743H47.8525V528.641H51.4162V516.962L48.0202 518.977L47.4333 518.042L51.6258 515.465H52.7577V528.641Z" fill="url(#paint38_linear_122_130)" fill-opacity="0.6"/>
<path d="M51.5 539.008C52.9953 539.008 54.1273 539.639 54.8959 540.9C55.6785 542.147 56.0698 543.962 56.0698 546.345C56.0698 548.728 55.6785 550.549 54.8959 551.81C54.1273 553.071 52.9953 553.701 51.5 553.701C50.0187 553.701 48.8867 553.071 48.1041 551.81C47.3215 550.549 46.9302 548.728 46.9302 546.345C46.9302 543.975 47.3215 542.16 48.1041 540.9C48.8867 539.639 50.0187 539.008 51.5 539.008ZM48.4185 546.345C48.4185 548.035 48.5723 549.358 48.8797 550.314L53.5334 541.107C53.0442 540.456 52.3664 540.131 51.5 540.131C50.5357 540.131 49.7811 540.643 49.2361 541.669C48.691 542.68 48.4185 544.239 48.4185 546.345ZM51.5 552.558C52.4782 552.558 53.2399 552.053 53.7849 551.041C54.3299 550.016 54.6024 548.451 54.6024 546.345C54.6024 544.557 54.4277 543.172 54.0784 542.188L49.4247 551.478C49.9278 552.198 50.6196 552.558 51.5 552.558Z" fill="url(#paint39_linear_122_130)" fill-opacity="0.6"/>
<path d="M52.7577 576.143H55.8392V577.245H47.8525V576.143H51.4162V564.464L48.0202 566.48L47.4333 565.544L51.6258 562.967H52.7577V576.143Z" fill="url(#paint40_linear_122_130)" fill-opacity="0.6"/>
<path d="M51.5 586.511C52.9953 586.511 54.1273 587.141 54.8959 588.402C55.6785 589.649 56.0698 591.464 56.0698 593.847C56.0698 596.23 55.6785 598.052 54.8959 599.312C54.1273 600.573 52.9953 601.204 51.5 601.204C50.0187 601.204 48.8867 600.573 48.1041 599.312C47.3215 598.052 46.9302 596.23 46.9302 593.847C46.9302 591.478 47.3215 589.663 48.1041 588.402C48.8867 587.141 50.0187 586.511 51.5 586.511ZM48.4185 593.847C48.4185 595.537 48.5723 596.86 48.8797 597.816L53.5334 588.61C53.0442 587.958 52.3664 587.633 51.5 587.633C50.5357 587.633 49.7811 588.145 49.2361 589.171C48.691 590.182 48.4185 591.741 48.4185 593.847ZM51.5 600.061C52.4782 600.061 53.2399 599.555 53.7849 598.543C54.3299 597.518 54.6024 595.953 54.6024 593.847C54.6024 592.059 54.4277 590.674 54.0784 589.69L49.4247 598.98C49.9278 599.7 50.6196 600.061 51.5 600.061Z" fill="url(#paint41_linear_122_130)" fill-opacity="0.6"/>
<path d="M90.4302 372.751C91.9255 372.751 93.0575 373.381 93.8261 374.642C94.6087 375.889 95 377.704 95 380.087C95 382.47 94.6087 384.292 93.8261 385.553C93.0575 386.814 91.9255 387.444 90.4302 387.444C88.9489 387.444 87.8169 386.814 87.0343 385.553C86.2517 384.292 85.8604 382.47 85.8604 380.087C85.8604 377.718 86.2517 375.903 87.0343 374.642C87.8169 373.381 88.9489 372.751 90.4302 372.751ZM87.3487 380.087C87.3487 381.777 87.5024 383.101 87.8099 384.057L92.4636 374.85C91.9744 374.199 91.2966 373.873 90.4302 373.873C89.4659 373.873 88.7113 374.386 88.1663 375.411C87.6212 376.423 87.3487 377.981 87.3487 380.087ZM90.4302 386.301C91.4084 386.301 92.1701 385.795 92.7151 384.784C93.2601 383.759 93.5326 382.193 93.5326 380.087C93.5326 378.3 93.3579 376.914 93.0086 375.931L88.3549 385.22C88.858 385.941 89.5498 386.301 90.4302 386.301Z" fill="url(#paint42_linear_122_130)" fill-opacity="0.6"/>
<path d="M91.6879 409.886H94.7694V410.987H86.7827V409.886H90.3463V398.206L86.9504 400.222L86.3635 399.287L90.556 396.71H91.6879V409.886Z" fill="url(#paint43_linear_122_130)" fill-opacity="0.6"/>
<path d="M91.6879 433.637H94.7694V434.738H86.7827V433.637H90.3463V421.957L86.9504 423.973L86.3635 423.038L90.556 420.461H91.6879V433.637Z" fill="url(#paint44_linear_122_130)" fill-opacity="0.6"/>
<path d="M90.4302 444.004C91.9255 444.004 93.0575 444.635 93.8261 445.895C94.6087 447.142 95 448.957 95 451.34C95 453.723 94.6087 455.545 93.8261 456.806C93.0575 458.067 91.9255 458.697 90.4302 458.697C88.9489 458.697 87.8169 458.067 87.0343 456.806C86.2517 455.545 85.8604 453.723 85.8604 451.34C85.8604 448.971 86.2517 447.156 87.0343 445.895C87.8169 444.635 88.9489 444.004 90.4302 444.004ZM87.3487 451.34C87.3487 453.031 87.5024 454.354 87.8099 455.31L92.4636 446.103C91.9744 445.452 91.2966 445.126 90.4302 445.126C89.4659 445.126 88.7113 445.639 88.1663 446.664C87.6212 447.676 87.3487 449.234 87.3487 451.34ZM90.4302 457.554C91.4084 457.554 92.1701 457.049 92.7151 456.037C93.2601 455.012 93.5326 453.446 93.5326 451.34C93.5326 449.553 93.3579 448.168 93.0086 447.184L88.3549 456.474C88.858 457.194 89.5498 457.554 90.4302 457.554Z" fill="url(#paint45_linear_122_130)" fill-opacity="0.6"/>
<path d="M90.4302 467.755C91.9255 467.755 93.0575 468.386 93.8261 469.646C94.6087 470.893 95 472.708 95 475.091C95 477.474 94.6087 479.296 93.8261 480.557C93.0575 481.818 91.9255 482.448 90.4302 482.448C88.9489 482.448 87.8169 481.818 87.0343 480.557C86.2517 479.296 85.8604 477.474 85.8604 475.091C85.8604 472.722 86.2517 470.907 87.0343 469.646C87.8169 468.386 88.9489 467.755 90.4302 467.755ZM87.3487 475.091C87.3487 476.782 87.5024 478.105 87.8099 479.061L92.4636 469.854C91.9744 469.203 91.2966 468.878 90.4302 468.878C89.4659 468.878 88.7113 469.39 88.1663 470.415C87.6212 471.427 87.3487 472.985 87.3487 475.091ZM90.4302 481.305C91.4084 481.305 92.1701 480.8 92.7151 479.788C93.2601 478.763 93.5326 477.197 93.5326 475.091C93.5326 473.304 93.3579 471.919 93.0086 470.935L88.3549 480.225C88.858 480.945 89.5498 481.305 90.4302 481.305Z" fill="url(#paint46_linear_122_130)" fill-opacity="0.6"/>
<g opacity="0.6">
<path d="M918.93 49C920.356 49 921.436 49.605 922.17 50.8149C922.916 52.0115 923.29 53.7532 923.29 56.0401C923.29 58.327 922.916 60.0754 922.17 61.2853C921.436 62.4952 920.356 63.1002 918.93 63.1002C917.517 63.1002 916.437 62.4952 915.69 61.2853C914.943 60.0754 914.57 58.327 914.57 56.0401C914.57 53.7665 914.943 52.0248 915.69 50.8149C916.437 49.605 917.517 49 918.93 49ZM915.99 56.0401C915.99 57.6622 916.137 58.932 916.43 59.8494L920.87 51.0143C920.403 50.3894 919.756 50.077 918.93 50.077C918.01 50.077 917.29 50.5689 916.77 51.5528C916.25 52.5234 915.99 54.0192 915.99 56.0401ZM918.93 62.0033C919.863 62.0033 920.59 61.518 921.11 60.5474C921.63 59.5635 921.89 58.0611 921.89 56.0401C921.89 54.325 921.723 52.9954 921.39 52.0514L916.95 60.9662C917.43 61.6576 918.09 62.0033 918.93 62.0033Z" fill="url(#paint47_linear_122_130)"/>
<path d="M920.13 84.6365H923.07V85.6936H915.45V84.6365H918.85V73.4282L915.61 75.3627L915.05 74.4653L919.05 71.9922H920.13V84.6365Z" fill="url(#paint48_linear_122_130)"/>
<path d="M918.93 94.5856C920.356 94.5856 921.436 95.1906 922.17 96.4005C922.916 97.5971 923.29 99.3389 923.29 101.626C923.29 103.913 922.916 105.661 922.17 106.871C921.436 108.081 920.356 108.686 918.93 108.686C917.517 108.686 916.437 108.081 915.69 106.871C914.943 105.661 914.57 103.913 914.57 101.626C914.57 99.3522 914.943 97.6104 915.69 96.4005C916.437 95.1906 917.517 94.5856 918.93 94.5856ZM915.99 101.626C915.99 103.248 916.137 104.518 916.43 105.435L920.87 96.5999C920.403 95.975 919.756 95.6626 918.93 95.6626C918.01 95.6626 917.29 96.1545 916.77 97.1384C916.25 98.109 915.99 99.6048 915.99 101.626ZM918.93 107.589C919.863 107.589 920.59 107.104 921.11 106.133C921.63 105.149 921.89 103.647 921.89 101.626C921.89 99.9106 921.723 98.581 921.39 97.637L916.95 106.552C917.43 107.243 918.09 107.589 918.93 107.589Z" fill="url(#paint49_linear_122_130)"/>
<path d="M920.13 130.222H923.07V131.279H915.45V130.222H918.85V119.014L915.61 120.948L915.05 120.051L919.05 117.578H920.13V130.222Z" fill="url(#paint50_linear_122_130)"/>
<path d="M920.13 153.015H923.07V154.072H915.45V153.015H918.85V141.807L915.61 143.741L915.05 142.844L919.05 140.371H920.13V153.015Z" fill="url(#paint51_linear_122_130)"/>
<path d="M918.93 162.964C920.356 162.964 921.436 163.569 922.17 164.779C922.916 165.976 923.29 167.717 923.29 170.004C923.29 172.291 922.916 174.039 922.17 175.249C921.436 176.459 920.356 177.064 918.93 177.064C917.517 177.064 916.437 176.459 915.69 175.249C914.943 174.039 914.57 172.291 914.57 170.004C914.57 167.731 914.943 165.989 915.69 164.779C916.437 163.569 917.517 162.964 918.93 162.964ZM915.99 170.004C915.99 171.626 916.137 172.896 916.43 173.813L920.87 164.978C920.403 164.353 919.756 164.041 918.93 164.041C918.01 164.041 917.29 164.533 916.77 165.517C916.25 166.487 915.99 167.983 915.99 170.004ZM918.93 175.967C919.863 175.967 920.59 175.482 921.11 174.511C921.63 173.528 921.89 172.025 921.89 170.004C921.89 168.289 921.723 166.959 921.39 166.015L916.95 174.93C917.43 175.622 918.09 175.967 918.93 175.967Z" fill="url(#paint52_linear_122_130)"/>
<path d="M920.13 198.601H923.07V199.658H915.45V198.601H918.85V187.392L915.61 189.327L915.05 188.429L919.05 185.956H920.13V198.601Z" fill="url(#paint53_linear_122_130)"/>
<path d="M918.93 208.55C920.356 208.55 921.436 209.155 922.17 210.365C922.916 211.561 923.29 213.303 923.29 215.59C923.29 217.877 922.916 219.625 922.17 220.835C921.436 222.045 920.356 222.65 918.93 222.65C917.517 222.65 916.437 222.045 915.69 220.835C914.943 219.625 914.57 217.877 914.57 215.59C914.57 213.316 914.943 211.574 915.69 210.365C916.437 209.155 917.517 208.55 918.93 208.55ZM915.99 215.59C915.99 217.212 916.137 218.482 916.43 219.399L920.87 210.564C920.403 209.939 919.756 209.627 918.93 209.627C918.01 209.627 917.29 210.119 916.77 211.102C916.25 212.073 915.99 213.569 915.99 215.59ZM918.93 221.553C919.863 221.553 920.59 221.068 921.11 220.097C921.63 219.113 921.89 217.611 921.89 215.59C921.89 213.875 921.723 212.545 921.39 211.601L916.95 220.516C917.43 221.207 918.09 221.553 918.93 221.553Z" fill="url(#paint54_linear_122_130)"/>
<path d="M918.93 231.342C920.356 231.342 921.436 231.947 922.17 233.157C922.916 234.354 923.29 236.096 923.29 238.383C923.29 240.669 922.916 242.418 922.17 243.628C921.436 244.838 920.356 245.443 918.93 245.443C917.517 245.443 916.437 244.838 915.69 243.628C914.943 242.418 914.57 240.669 914.57 238.383C914.57 236.109 914.943 234.367 915.69 233.157C916.437 231.947 917.517 231.342 918.93 231.342ZM915.99 238.383C915.99 240.005 916.137 241.274 916.43 242.192L920.87 233.357C920.403 232.732 919.756 232.419 918.93 232.419C918.01 232.419 917.29 232.911 916.77 233.895C916.25 234.866 915.99 236.362 915.99 238.383ZM918.93 244.346C919.863 244.346 920.59 243.86 921.11 242.89C921.63 241.906 921.89 240.404 921.89 238.383C921.89 236.667 921.723 235.338 921.39 234.394L916.95 243.309C917.43 244 918.09 244.346 918.93 244.346Z" fill="url(#paint55_linear_122_130)"/>
<path d="M920.13 266.979H923.07V268.036H915.45V266.979H918.85V255.771L915.61 257.705L915.05 256.808L919.05 254.335H920.13V266.979Z" fill="url(#paint56_linear_122_130)"/>
<path d="M918.93 276.928C920.356 276.928 921.436 277.533 922.17 278.743C922.916 279.94 923.29 281.681 923.29 283.968C923.29 286.255 922.916 288.003 922.17 289.213C921.436 290.423 920.356 291.028 918.93 291.028C917.517 291.028 916.437 290.423 915.69 289.213C914.943 288.003 914.57 286.255 914.57 283.968C914.57 281.695 914.943 279.953 915.69 278.743C916.437 277.533 917.517 276.928 918.93 276.928ZM915.99 283.968C915.99 285.59 916.137 286.86 916.43 287.777L920.87 278.942C920.403 278.317 919.756 278.005 918.93 278.005C918.01 278.005 917.29 278.497 916.77 279.481C916.25 280.451 915.99 281.947 915.99 283.968ZM918.93 289.931C919.863 289.931 920.59 289.446 921.11 288.475C921.63 287.492 921.89 285.989 921.89 283.968C921.89 282.253 921.723 280.923 921.39 279.979L916.95 288.894C917.43 289.586 918.09 289.931 918.93 289.931Z" fill="url(#paint57_linear_122_130)"/>
<path d="M920.13 312.565H923.07V313.622H915.45V312.565H918.85V301.356L915.61 303.291L915.05 302.393L919.05 299.92H920.13V312.565Z" fill="url(#paint58_linear_122_130)"/>
<path d="M920.13 335.357H923.07V336.414H915.45V335.357H918.85V324.149L915.61 326.084L915.05 325.186L919.05 322.713H920.13V335.357Z" fill="url(#paint59_linear_122_130)"/>
<path d="M956.07 94.5856C957.497 94.5856 958.577 95.1906 959.31 96.4005C960.057 97.5971 960.43 99.3389 960.43 101.626C960.43 103.913 960.057 105.661 959.31 106.871C958.577 108.081 957.497 108.686 956.07 108.686C954.657 108.686 953.577 108.081 952.83 106.871C952.084 105.661 951.71 103.913 951.71 101.626C951.71 99.3522 952.084 97.6104 952.83 96.4005C953.577 95.1906 954.657 94.5856 956.07 94.5856ZM953.13 101.626C953.13 103.248 953.277 104.518 953.57 105.435L958.01 96.5999C957.543 95.975 956.897 95.6626 956.07 95.6626C955.15 95.6626 954.43 96.1545 953.91 97.1384C953.39 98.109 953.13 99.6048 953.13 101.626ZM956.07 107.589C957.003 107.589 957.73 107.104 958.25 106.133C958.77 105.149 959.03 103.647 959.03 101.626C959.03 99.9106 958.863 98.581 958.53 97.637L954.09 106.552C954.57 107.243 955.23 107.589 956.07 107.589Z" fill="url(#paint60_linear_122_130)"/>
<path d="M957.27 130.222H960.21V131.279H952.59V130.222H955.99V119.014L952.75 120.948L952.19 120.051L956.19 117.578H957.27V130.222Z" fill="url(#paint61_linear_122_130)"/>
<path d="M956.07 140.171C957.497 140.171 958.577 140.776 959.31 141.986C960.057 143.183 960.43 144.924 960.43 147.211C960.43 149.498 960.057 151.247 959.31 152.457C958.577 153.666 957.497 154.271 956.07 154.271C954.657 154.271 953.577 153.666 952.83 152.457C952.084 151.247 951.71 149.498 951.71 147.211C951.71 144.938 952.084 143.196 952.83 141.986C953.577 140.776 954.657 140.171 956.07 140.171ZM953.13 147.211C953.13 148.833 953.277 150.103 953.57 151.021L958.01 142.186C957.543 141.561 956.897 141.248 956.07 141.248C955.15 141.248 954.43 141.74 953.91 142.724C953.39 143.695 953.13 145.19 953.13 147.211ZM956.07 153.174C957.003 153.174 957.73 152.689 958.25 151.719C958.77 150.735 959.03 149.232 959.03 147.211C959.03 145.496 958.863 144.167 958.53 143.223L954.09 152.137C954.57 152.829 955.23 153.174 956.07 153.174Z" fill="url(#paint62_linear_122_130)"/>
<path d="M956.07 162.964C957.497 162.964 958.577 163.569 959.31 164.779C960.057 165.976 960.43 167.717 960.43 170.004C960.43 172.291 960.057 174.039 959.31 175.249C958.577 176.459 957.497 177.064 956.07 177.064C954.657 177.064 953.577 176.459 952.83 175.249C952.084 174.039 951.71 172.291 951.71 170.004C951.71 167.731 952.084 165.989 952.83 164.779C953.577 163.569 954.657 162.964 956.07 162.964ZM953.13 170.004C953.13 171.626 953.277 172.896 953.57 173.813L958.01 164.978C957.543 164.353 956.897 164.041 956.07 164.041C955.15 164.041 954.43 164.533 953.91 165.517C953.39 166.487 953.13 167.983 953.13 170.004ZM956.07 175.967C957.003 175.967 957.73 175.482 958.25 174.511C958.77 173.528 959.03 172.025 959.03 170.004C959.03 168.289 958.863 166.959 958.53 166.015L954.09 174.93C954.57 175.622 955.23 175.967 956.07 175.967Z" fill="url(#paint63_linear_122_130)"/>
<path d="M957.27 198.601H960.21V199.658H952.59V198.601H955.99V187.392L952.75 189.327L952.19 188.429L956.19 185.956H957.27V198.601Z" fill="url(#paint64_linear_122_130)"/>
<path d="M956.07 208.55C957.497 208.55 958.577 209.155 959.31 210.365C960.057 211.561 960.43 213.303 960.43 215.59C960.43 217.877 960.057 219.625 959.31 220.835C958.577 222.045 957.497 222.65 956.07 222.65C954.657 222.65 953.577 222.045 952.83 220.835C952.084 219.625 951.71 217.877 951.71 215.59C951.71 213.316 952.084 211.574 952.83 210.365C953.577 209.155 954.657 208.55 956.07 208.55ZM953.13 215.59C953.13 217.212 953.277 218.482 953.57 219.399L958.01 210.564C957.543 209.939 956.897 209.627 956.07 209.627C955.15 209.627 954.43 210.119 953.91 211.102C953.39 212.073 953.13 213.569 953.13 215.59ZM956.07 221.553C957.003 221.553 957.73 221.068 958.25 220.097C958.77 219.113 959.03 217.611 959.03 215.59C959.03 213.875 958.863 212.545 958.53 211.601L954.09 220.516C954.57 221.207 955.23 221.553 956.07 221.553Z" fill="url(#paint65_linear_122_130)"/>
<path d="M957.27 244.186H960.21V245.243H952.59V244.186H955.99V232.978L952.75 234.912L952.19 234.015L956.19 231.542H957.27V244.186Z" fill="url(#paint66_linear_122_130)"/>
<path d="M956.07 254.135C957.497 254.135 958.577 254.74 959.31 255.95C960.057 257.147 960.43 258.888 960.43 261.175C960.43 263.462 960.057 265.211 959.31 266.421C958.577 267.63 957.497 268.235 956.07 268.235C954.657 268.235 953.577 267.63 952.83 266.421C952.084 265.211 951.71 263.462 951.71 261.175C951.71 258.902 952.084 257.16 952.83 255.95C953.577 254.74 954.657 254.135 956.07 254.135ZM953.13 261.175C953.13 262.797 953.277 264.067 953.57 264.985L958.01 256.15C957.543 255.525 956.897 255.212 956.07 255.212C955.15 255.212 954.43 255.704 953.91 256.688C953.39 257.659 953.13 259.154 953.13 261.175ZM956.07 267.139C957.003 267.139 957.73 266.653 958.25 265.683C958.77 264.699 959.03 263.196 959.03 261.175C959.03 259.46 958.863 258.131 958.53 257.187L954.09 266.101C954.57 266.793 955.23 267.139 956.07 267.139Z" fill="url(#paint67_linear_122_130)"/>
<path d="M956.07 276.928C957.497 276.928 958.577 277.533 959.31 278.743C960.057 279.94 960.43 281.681 960.43 283.968C960.43 286.255 960.057 288.003 959.31 289.213C958.577 290.423 957.497 291.028 956.07 291.028C954.657 291.028 953.577 290.423 952.83 289.213C952.084 288.003 951.71 286.255 951.71 283.968C951.71 281.695 952.084 279.953 952.83 278.743C953.577 277.533 954.657 276.928 956.07 276.928ZM953.13 283.968C953.13 285.59 953.277 286.86 953.57 287.777L958.01 278.942C957.543 278.317 956.897 278.005 956.07 278.005C955.15 278.005 954.43 278.497 953.91 279.481C953.39 280.451 953.13 281.947 953.13 283.968ZM956.07 289.931C957.003 289.931 957.73 289.446 958.25 288.475C958.77 287.492 959.03 285.989 959.03 283.968C959.03 282.253 958.863 280.923 958.53 279.979L954.09 288.894C954.57 289.586 955.23 289.931 956.07 289.931Z" fill="url(#paint68_linear_122_130)"/>
<path d="M957.27 312.565H960.21V313.622H952.59V312.565H955.99V301.356L952.75 303.291L952.19 302.393L956.19 299.92H957.27V312.565Z" fill="url(#paint69_linear_122_130)"/>
<path d="M956.07 322.514C957.497 322.514 958.577 323.119 959.31 324.329C960.057 325.525 960.43 327.267 960.43 329.554C960.43 331.841 960.057 333.589 959.31 334.799C958.577 336.009 957.497 336.614 956.07 336.614C954.657 336.614 953.577 336.009 952.83 334.799C952.084 333.589 951.71 331.841 951.71 329.554C951.71 327.28 952.084 325.538 952.83 324.329C953.577 323.119 954.657 322.514 956.07 322.514ZM953.13 329.554C953.13 331.176 953.277 332.446 953.57 333.363L958.01 324.528C957.543 323.903 956.897 323.591 956.07 323.591C955.15 323.591 954.43 324.083 953.91 325.066C953.39 326.037 953.13 327.533 953.13 329.554ZM956.07 335.517C957.003 335.517 957.73 335.032 958.25 334.061C958.77 333.077 959.03 331.575 959.03 329.554C959.03 327.839 958.863 326.509 958.53 325.565L954.09 334.48C954.57 335.171 955.23 335.517 956.07 335.517Z" fill="url(#paint70_linear_122_130)"/>
<path d="M957.27 358.15H960.21V359.207H952.59V358.15H955.99V346.942L952.75 348.876L952.19 347.979L956.19 345.506H957.27V358.15Z" fill="url(#paint71_linear_122_130)"/>
<path d="M957.27 380.943H960.21V382H952.59V380.943H955.99V369.735L952.75 371.669L952.19 370.772L956.19 368.299H957.27V380.943Z" fill="url(#paint72_linear_122_130)"/>
<path d="M900.36 117.378C901.786 117.378 902.866 117.983 903.599 119.193C904.346 120.39 904.719 122.132 904.719 124.419C904.719 126.705 904.346 128.454 903.599 129.664C902.866 130.874 901.786 131.479 900.36 131.479C898.946 131.479 897.867 130.874 897.12 129.664C896.373 128.454 896 126.705 896 124.419C896 122.145 896.373 120.403 897.12 119.193C897.867 117.983 898.946 117.378 900.36 117.378ZM897.42 124.419C897.42 126.041 897.567 127.31 897.86 128.228L902.3 119.393C901.833 118.768 901.186 118.455 900.36 118.455C899.44 118.455 898.72 118.947 898.2 119.931C897.68 120.902 897.42 122.398 897.42 124.419ZM900.36 130.382C901.293 130.382 902.02 129.896 902.54 128.926C903.06 127.942 903.319 126.44 903.319 124.419C903.319 122.703 903.153 121.374 902.82 120.43L898.38 129.345C898.86 130.036 899.52 130.382 900.36 130.382Z" fill="url(#paint73_linear_122_130)"/>
<path d="M900.36 140.171C901.786 140.171 902.866 140.776 903.599 141.986C904.346 143.183 904.719 144.924 904.719 147.211C904.719 149.498 904.346 151.247 903.599 152.457C902.866 153.666 901.786 154.271 900.36 154.271C898.946 154.271 897.867 153.666 897.12 152.457C896.373 151.247 896 149.498 896 147.211C896 144.938 896.373 143.196 897.12 141.986C897.867 140.776 898.946 140.171 900.36 140.171ZM897.42 147.211C897.42 148.833 897.567 150.103 897.86 151.021L902.3 142.186C901.833 141.561 901.186 141.248 900.36 141.248C899.44 141.248 898.72 141.74 898.2 142.724C897.68 143.695 897.42 145.19 897.42 147.211ZM900.36 153.174C901.293 153.174 902.02 152.689 902.54 151.719C903.06 150.735 903.319 149.232 903.319 147.211C903.319 145.496 903.153 144.167 902.82 143.223L898.38 152.137C898.86 152.829 899.52 153.174 900.36 153.174Z" fill="url(#paint74_linear_122_130)"/>
<path d="M901.56 175.808H904.499V176.865H896.88V175.808H900.28V164.599L897.04 166.534L896.48 165.636L900.48 163.163H901.56V175.808Z" fill="url(#paint75_linear_122_130)"/>
<path d="M900.36 185.757C901.786 185.757 902.866 186.362 903.599 187.572C904.346 188.768 904.719 190.51 904.719 192.797C904.719 195.084 904.346 196.832 903.599 198.042C902.866 199.252 901.786 199.857 900.36 199.857C898.946 199.857 897.867 199.252 897.12 198.042C896.373 196.832 896 195.084 896 192.797C896 190.523 896.373 188.782 897.12 187.572C897.867 186.362 898.946 185.757 900.36 185.757ZM897.42 192.797C897.42 194.419 897.567 195.689 897.86 196.606L902.3 187.771C901.833 187.146 901.186 186.834 900.36 186.834C899.44 186.834 898.72 187.326 898.2 188.31C897.68 189.28 897.42 190.776 897.42 192.797ZM900.36 198.76C901.293 198.76 902.02 198.275 902.54 197.304C903.06 196.32 903.319 194.818 903.319 192.797C903.319 191.082 903.153 189.752 902.82 188.808L898.38 197.723C898.86 198.414 899.52 198.76 900.36 198.76Z" fill="url(#paint76_linear_122_130)"/>
<path d="M901.56 221.393H904.499V222.45H896.88V221.393H900.28V210.185L897.04 212.12L896.48 211.222L900.48 208.749H901.56V221.393Z" fill="url(#paint77_linear_122_130)"/>
<path d="M901.56 244.186H904.499V245.243H896.88V244.186H900.28V232.978L897.04 234.912L896.48 234.015L900.48 231.542H901.56V244.186Z" fill="url(#paint78_linear_122_130)"/>
<path d="M938.7 84.6365H941.64V85.6936H934.02V84.6365H937.42V73.4282L934.18 75.3627L933.62 74.4653L937.62 71.9922H938.7V84.6365Z" fill="url(#paint79_linear_122_130)"/>
<path d="M937.5 94.5856C938.927 94.5856 940.006 95.1906 940.74 96.4005C941.486 97.5971 941.86 99.3389 941.86 101.626C941.86 103.913 941.486 105.661 940.74 106.871C940.006 108.081 938.927 108.686 937.5 108.686C936.087 108.686 935.007 108.081 934.26 106.871C933.514 105.661 933.14 103.913 933.14 101.626C933.14 99.3522 933.514 97.6104 934.26 96.4005C935.007 95.1906 936.087 94.5856 937.5 94.5856ZM934.56 101.626C934.56 103.248 934.707 104.518 935 105.435L939.44 96.5999C938.973 95.975 938.327 95.6626 937.5 95.6626C936.58 95.6626 935.86 96.1545 935.34 97.1384C934.82 98.109 934.56 99.6048 934.56 101.626ZM937.5 107.589C938.433 107.589 939.16 107.104 939.68 106.133C940.2 105.149 940.46 103.647 940.46 101.626C940.46 99.9106 940.293 98.581 939.96 97.637L935.52 106.552C936 107.243 936.66 107.589 937.5 107.589Z" fill="url(#paint80_linear_122_130)"/>
<path d="M938.7 130.222H941.64V131.279H934.02V130.222H937.42V119.014L934.18 120.948L933.62 120.051L937.62 117.578H938.7V130.222Z" fill="url(#paint81_linear_122_130)"/>
<path d="M938.7 153.015H941.64V154.072H934.02V153.015H937.42V141.807L934.18 143.741L933.62 142.844L937.62 140.371H938.7V153.015Z" fill="url(#paint82_linear_122_130)"/>
<path d="M937.5 162.964C938.927 162.964 940.006 163.569 940.74 164.779C941.486 165.976 941.86 167.717 941.86 170.004C941.86 172.291 941.486 174.039 940.74 175.249C940.006 176.459 938.927 177.064 937.5 177.064C936.087 177.064 935.007 176.459 934.26 175.249C933.514 174.039 933.14 172.291 933.14 170.004C933.14 167.731 933.514 165.989 934.26 164.779C935.007 163.569 936.087 162.964 937.5 162.964ZM934.56 170.004C934.56 171.626 934.707 172.896 935 173.813L939.44 164.978C938.973 164.353 938.327 164.041 937.5 164.041C936.58 164.041 935.86 164.533 935.34 165.517C934.82 166.487 934.56 167.983 934.56 170.004ZM937.5 175.967C938.433 175.967 939.16 175.482 939.68 174.511C940.2 173.528 940.46 172.025 940.46 170.004C940.46 168.289 940.293 166.959 939.96 166.015L935.52 174.93C936 175.622 936.66 175.967 937.5 175.967Z" fill="url(#paint83_linear_122_130)"/>
<path d="M938.7 198.601H941.64V199.658H934.02V198.601H937.42V187.392L934.18 189.327L933.62 188.429L937.62 185.956H938.7V198.601Z" fill="url(#paint84_linear_122_130)"/>
<path d="M938.7 221.393H941.64V222.45H934.02V221.393H937.42V210.185L934.18 212.12L933.62 211.222L937.62 208.749H938.7V221.393Z" fill="url(#paint85_linear_122_130)"/>
<path d="M937.5 231.342C938.927 231.342 940.006 231.947 940.74 233.157C941.486 234.354 941.86 236.096 941.86 238.383C941.86 240.669 941.486 242.418 940.74 243.628C940.006 244.838 938.927 245.443 937.5 245.443C936.087 245.443 935.007 244.838 934.26 243.628C933.514 242.418 933.14 240.669 933.14 238.383C933.14 236.109 933.514 234.367 934.26 233.157C935.007 231.947 936.087 231.342 937.5 231.342ZM934.56 238.383C934.56 240.005 934.707 241.274 935 242.192L939.44 233.357C938.973 232.732 938.327 232.419 937.5 232.419C936.58 232.419 935.86 232.911 935.34 233.895C934.82 234.866 934.56 236.362 934.56 238.383ZM937.5 244.346C938.433 244.346 939.16 243.86 939.68 242.89C940.2 241.906 940.46 240.404 940.46 238.383C940.46 236.667 940.293 235.338 939.96 234.394L935.52 243.309C936 244 936.66 244.346 937.5 244.346Z" fill="url(#paint86_linear_122_130)"/>
<path d="M938.7 266.979H941.64V268.036H934.02V266.979H937.42V255.771L934.18 257.705L933.62 256.808L937.62 254.335H938.7V266.979Z" fill="url(#paint87_linear_122_130)"/>
<path d="M937.5 276.928C938.927 276.928 940.006 277.533 940.74 278.743C941.486 279.94 941.86 281.681 941.86 283.968C941.86 286.255 941.486 288.003 940.74 289.213C940.006 290.423 938.927 291.028 937.5 291.028C936.087 291.028 935.007 290.423 934.26 289.213C933.514 288.003 933.14 286.255 933.14 283.968C933.14 281.695 933.514 279.953 934.26 278.743C935.007 277.533 936.087 276.928 937.5 276.928ZM934.56 283.968C934.56 285.59 934.707 286.86 935 287.777L939.44 278.942C938.973 278.317 938.327 278.005 937.5 278.005C936.58 278.005 935.86 278.497 935.34 279.481C934.82 280.451 934.56 281.947 934.56 283.968ZM937.5 289.931C938.433 289.931 939.16 289.446 939.68 288.475C940.2 287.492 940.46 285.989 940.46 283.968C940.46 282.253 940.293 280.923 939.96 279.979L935.52 288.894C936 289.586 936.66 289.931 937.5 289.931Z" fill="url(#paint88_linear_122_130)"/>
<path d="M974.64 71.7928C976.067 71.7928 977.147 72.3978 977.88 73.6077C978.627 74.8043 979 76.5461 979 78.8329C979 81.1198 978.627 82.8682 977.88 84.0781C977.147 85.288 976.067 85.893 974.64 85.893C973.227 85.893 972.147 85.288 971.401 84.0781C970.654 82.8682 970.281 81.1198 970.281 78.8329C970.281 76.5593 970.654 74.8176 971.401 73.6077C972.147 72.3978 973.227 71.7928 974.64 71.7928ZM971.7 78.8329C971.7 80.455 971.847 81.7248 972.14 82.6422L976.58 73.8071C976.114 73.1822 975.467 72.8698 974.64 72.8698C973.72 72.8698 973 73.3617 972.48 74.3456C971.96 75.3162 971.7 76.812 971.7 78.8329ZM974.64 84.7961C975.574 84.7961 976.3 84.3108 976.82 83.3402C977.34 82.3563 977.6 80.8539 977.6 78.8329C977.6 77.1178 977.433 75.7882 977.1 74.8442L972.66 83.759C973.14 84.4504 973.8 84.7961 974.64 84.7961Z" fill="url(#paint89_linear_122_130)"/>
<path d="M975.84 107.429H978.78V108.486H971.161V107.429H974.56V96.221L971.321 98.1555L970.761 97.2581L974.76 94.785H975.84V107.429Z" fill="url(#paint90_linear_122_130)"/>
<path d="M975.84 130.222H978.78V131.279H971.161V130.222H974.56V119.014L971.321 120.948L970.761 120.051L974.76 117.578H975.84V130.222Z" fill="url(#paint91_linear_122_130)"/>
<path d="M974.64 140.171C976.067 140.171 977.147 140.776 977.88 141.986C978.627 143.183 979 144.924 979 147.211C979 149.498 978.627 151.247 977.88 152.457C977.147 153.666 976.067 154.271 974.64 154.271C973.227 154.271 972.147 153.666 971.401 152.457C970.654 151.247 970.281 149.498 970.281 147.211C970.281 144.938 970.654 143.196 971.401 141.986C972.147 140.776 973.227 140.171 974.64 140.171ZM971.7 147.211C971.7 148.833 971.847 150.103 972.14 151.021L976.58 142.186C976.114 141.561 975.467 141.248 974.64 141.248C973.72 141.248 973 141.74 972.48 142.724C971.96 143.695 971.7 145.19 971.7 147.211ZM974.64 153.174C975.574 153.174 976.3 152.689 976.82 151.719C977.34 150.735 977.6 149.232 977.6 147.211C977.6 145.496 977.433 144.167 977.1 143.223L972.66 152.137C973.14 152.829 973.8 153.174 974.64 153.174Z" fill="url(#paint92_linear_122_130)"/>
<path d="M974.64 162.964C976.067 162.964 977.147 163.569 977.88 164.779C978.627 165.976 979 167.717 979 170.004C979 172.291 978.627 174.039 977.88 175.249C977.147 176.459 976.067 177.064 974.64 177.064C973.227 177.064 972.147 176.459 971.401 175.249C970.654 174.039 970.281 172.291 970.281 170.004C970.281 167.731 970.654 165.989 971.401 164.779C972.147 163.569 973.227 162.964 974.64 162.964ZM971.7 170.004C971.7 171.626 971.847 172.896 972.14 173.813L976.58 164.978C976.114 164.353 975.467 164.041 974.64 164.041C973.72 164.041 973 164.533 972.48 165.517C971.96 166.487 971.7 167.983 971.7 170.004ZM974.64 175.967C975.574 175.967 976.3 175.482 976.82 174.511C977.34 173.528 977.6 172.025 977.6 170.004C977.6 168.289 977.433 166.959 977.1 166.015L972.66 174.93C973.14 175.622 973.8 175.967 974.64 175.967Z" fill="url(#paint93_linear_122_130)"/>
</g>
</g>
<defs>
<filter id="filter0_f_122_130" x="-559.19" y="-637.19" width="2141.38" height="1500.38" filterUnits="userSpaceOnUse" color-interpolation-filters="sRGB">
<feFlood flood-opacity="0" result="BackgroundImageFix"/>
<feBlend mode="normal" in="SourceGraphic" in2="BackgroundImageFix" result="shape"/>
<feGaussianBlur stdDeviation="200.095" result="effect1_foregroundBlur_122_130"/>
</filter>
<linearGradient id="paint0_linear_122_130" x1="51.5" y1="349" x2="51.5" y2="660.381" gradientUnits="userSpaceOnUse">
<stop stop-color="#F7DD43"/>
<stop offset="1" stop-color="#F7DD43" stop-opacity="0"/>
</linearGradient>
<linearGradient id="paint1_linear_122_130" x1="51.5" y1="349" x2="51.5" y2="660.381" gradientUnits="userSpaceOnUse">
<stop stop-color="#F7DD43"/>
<stop offset="1" stop-color="#F7DD43" stop-opacity="0"/>
</linearGradient>
<linearGradient id="paint2_linear_122_130" x1="51.5" y1="349" x2="51.5" y2="660.381" gradientUnits="userSpaceOnUse">
<stop stop-color="#F7DD43"/>
<stop offset="1" stop-color="#F7DD43" stop-opacity="0"/>
</linearGradient>
<linearGradient id="paint3_linear_122_130" x1="51.5" y1="349" x2="51.5" y2="660.381" gradientUnits="userSpaceOnUse">
<stop stop-color="#F7DD43"/>
<stop offset="1" stop-color="#F7DD43" stop-opacity="0"/>
</linearGradient>
<linearGradient id="paint4_linear_122_130" x1="51.5" y1="349" x2="51.5" y2="660.381" gradientUnits="userSpaceOnUse">
<stop stop-color="#F7DD43"/>
<stop offset="1" stop-color="#F7DD43" stop-opacity="0"/>
</linearGradient>
<linearGradient id="paint5_linear_122_130" x1="51.5" y1="349" x2="51.5" y2="660.381" gradientUnits="userSpaceOnUse">
<stop stop-color="#F7DD43"/>
<stop offset="1" stop-color="#F7DD43" stop-opacity="0"/>
</linearGradient>
<linearGradient id="paint6_linear_122_130" x1="51.5" y1="349" x2="51.5" y2="660.381" gradientUnits="userSpaceOnUse">
<stop stop-color="#F7DD43"/>
<stop offset="1" stop-color="#F7DD43" stop-opacity="0"/>
</linearGradient>
<linearGradient id="paint7_linear_122_130" x1="51.5" y1="349" x2="51.5" y2="660.381" gradientUnits="userSpaceOnUse">
<stop stop-color="#F7DD43"/>
<stop offset="1" stop-color="#F7DD43" stop-opacity="0"/>
</linearGradient>
<linearGradient id="paint8_linear_122_130" x1="51.5" y1="349" x2="51.5" y2="660.381" gradientUnits="userSpaceOnUse">
<stop stop-color="#F7DD43"/>
<stop offset="1" stop-color="#F7DD43" stop-opacity="0"/>
</linearGradient>
<linearGradient id="paint9_linear_122_130" x1="51.5" y1="349" x2="51.5" y2="660.381" gradientUnits="userSpaceOnUse">
<stop stop-color="#F7DD43"/>
<stop offset="1" stop-color="#F7DD43" stop-opacity="0"/>
</linearGradient>
<linearGradient id="paint10_linear_122_130" x1="51.5" y1="349" x2="51.5" y2="660.381" gradientUnits="userSpaceOnUse">
<stop stop-color="#F7DD43"/>
<stop offset="1" stop-color="#F7DD43" stop-opacity="0"/>
</linearGradient>
<linearGradient id="paint11_linear_122_130" x1="51.5" y1="349" x2="51.5" y2="660.381" gradientUnits="userSpaceOnUse">
<stop stop-color="#F7DD43"/>
<stop offset="1" stop-color="#F7DD43" stop-opacity="0"/>
</linearGradient>
<linearGradient id="paint12_linear_122_130" x1="51.5" y1="349" x2="51.5" y2="660.381" gradientUnits="userSpaceOnUse">
<stop stop-color="#F7DD43"/>
<stop offset="1" stop-color="#F7DD43" stop-opacity="0"/>
</linearGradient>
<linearGradient id="paint13_linear_122_130" x1="51.5" y1="349" x2="51.5" y2="660.381" gradientUnits="userSpaceOnUse">
<stop stop-color="#F7DD43"/>
<stop offset="1" stop-color="#F7DD43" stop-opacity="0"/>
</linearGradient>
<linearGradient id="paint14_linear_122_130" x1="51.5" y1="349" x2="51.5" y2="660.381" gradientUnits="userSpaceOnUse">
<stop stop-color="#F7DD43"/>
<stop offset="1" stop-color="#F7DD43" stop-opacity="0"/>
</linearGradient>
<linearGradient id="paint15_linear_122_130" x1="51.5" y1="349" x2="51.5" y2="660.381" gradientUnits="userSpaceOnUse">
<stop stop-color="#F7DD43"/>
<stop offset="1" stop-color="#F7DD43" stop-opacity="0"/>
</linearGradient>
<linearGradient id="paint16_linear_122_130" x1="51.5" y1="349" x2="51.5" y2="660.381" gradientUnits="userSpaceOnUse">
<stop stop-color="#F7DD43"/>
<stop offset="1" stop-color="#F7DD43" stop-opacity="0"/>
</linearGradient>
<linearGradient id="paint17_linear_122_130" x1="51.5" y1="349" x2="51.5" y2="660.381" gradientUnits="userSpaceOnUse">
<stop stop-color="#F7DD43"/>
<stop offset="1" stop-color="#F7DD43" stop-opacity="0"/>
</linearGradient>
<linearGradient id="paint18_linear_122_130" x1="51.5" y1="349" x2="51.5" y2="660.381" gradientUnits="userSpaceOnUse">
<stop stop-color="#F7DD43"/>
<stop offset="1" stop-color="#F7DD43" stop-opacity="0"/>
</linearGradient>
<linearGradient id="paint19_linear_122_130" x1="51.5" y1="349" x2="51.5" y2="660.381" gradientUnits="userSpaceOnUse">
<stop stop-color="#F7DD43"/>
<stop offset="1" stop-color="#F7DD43" stop-opacity="0"/>
</linearGradient>
<linearGradient id="paint20_linear_122_130" x1="51.5" y1="349" x2="51.5" y2="660.381" gradientUnits="userSpaceOnUse">
<stop stop-color="#F7DD43"/>
<stop offset="1" stop-color="#F7DD43" stop-opacity="0"/>
</linearGradient>
<linearGradient id="paint21_linear_122_130" x1="51.5" y1="349" x2="51.5" y2="660.381" gradientUnits="userSpaceOnUse">
<stop stop-color="#F7DD43"/>
<stop offset="1" stop-color="#F7DD43" stop-opacity="0"/>
</linearGradient>
<linearGradient id="paint22_linear_122_130" x1="51.5" y1="349" x2="51.5" y2="660.381" gradientUnits="userSpaceOnUse">
<stop stop-color="#F7DD43"/>
<stop offset="1" stop-color="#F7DD43" stop-opacity="0"/>
</linearGradient>
<linearGradient id="paint23_linear_122_130" x1="51.5" y1="349" x2="51.5" y2="660.381" gradientUnits="userSpaceOnUse">
<stop stop-color="#F7DD43"/>
<stop offset="1" stop-color="#F7DD43" stop-opacity="0"/>
</linearGradient>
<linearGradient id="paint24_linear_122_130" x1="51.5" y1="349" x2="51.5" y2="660.381" gradientUnits="userSpaceOnUse">
<stop stop-color="#F7DD43"/>
<stop offset="1" stop-color="#F7DD43" stop-opacity="0"/>
</linearGradient>
<linearGradient id="paint25_linear_122_130" x1="51.5" y1="349" x2="51.5" y2="660.381" gradientUnits="userSpaceOnUse">
<stop stop-color="#F7DD43"/>
<stop offset="1" stop-color="#F7DD43" stop-opacity="0"/>
</linearGradient>
<linearGradient id="paint26_linear_122_130" x1="51.5" y1="349" x2="51.5" y2="660.381" gradientUnits="userSpaceOnUse">
<stop stop-color="#F7DD43"/>
<stop offset="1" stop-color="#F7DD43" stop-opacity="0"/>
</linearGradient>
<linearGradient id="paint27_linear_122_130" x1="51.5" y1="349" x2="51.5" y2="660.381" gradientUnits="userSpaceOnUse">
<stop stop-color="#F7DD43"/>
<stop offset="1" stop-color="#F7DD43" stop-opacity="0"/>
</linearGradient>
<linearGradient id="paint28_linear_122_130" x1="51.5" y1="349" x2="51.5" y2="660.381" gradientUnits="userSpaceOnUse">
<stop stop-color="#F7DD43"/>
<stop offset="1" stop-color="#F7DD43" stop-opacity="0"/>
</linearGradient>
<linearGradient id="paint29_linear_122_130" x1="51.5" y1="349" x2="51.5" y2="660.381" gradientUnits="userSpaceOnUse">
<stop stop-color="#F7DD43"/>
<stop offset="1" stop-color="#F7DD43" stop-opacity="0"/>
</linearGradient>
<linearGradient id="paint30_linear_122_130" x1="51.5" y1="349" x2="51.5" y2="660.381" gradientUnits="userSpaceOnUse">
<stop stop-color="#F7DD43"/>
<stop offset="1" stop-color="#F7DD43" stop-opacity="0"/>
</linearGradient>
<linearGradient id="paint31_linear_122_130" x1="51.5" y1="349" x2="51.5" y2="660.381" gradientUnits="userSpaceOnUse">
<stop stop-color="#F7DD43"/>
<stop offset="1" stop-color="#F7DD43" stop-opacity="0"/>
</linearGradient>
<linearGradient id="paint32_linear_122_130" x1="51.5" y1="349" x2="51.5" y2="660.381" gradientUnits="userSpaceOnUse">
<stop stop-color="#F7DD43"/>
<stop offset="1" stop-color="#F7DD43" stop-opacity="0"/>
</linearGradient>
<linearGradient id="paint33_linear_122_130" x1="51.5" y1="349" x2="51.5" y2="660.381" gradientUnits="userSpaceOnUse">
<stop stop-color="#F7DD43"/>
<stop offset="1" stop-color="#F7DD43" stop-opacity="0"/>
</linearGradient>
<linearGradient id="paint34_linear_122_130" x1="51.5" y1="349" x2="51.5" y2="660.381" gradientUnits="userSpaceOnUse">
<stop stop-color="#F7DD43"/>
<stop offset="1" stop-color="#F7DD43" stop-opacity="0"/>
</linearGradient>
<linearGradient id="paint35_linear_122_130" x1="51.5" y1="349" x2="51.5" y2="660.381" gradientUnits="userSpaceOnUse">
<stop stop-color="#F7DD43"/>
<stop offset="1" stop-color="#F7DD43" stop-opacity="0"/>
</linearGradient>
<linearGradient id="paint36_linear_122_130" x1="51.5" y1="349" x2="51.5" y2="660.381" gradientUnits="userSpaceOnUse">
<stop stop-color="#F7DD43"/>
<stop offset="1" stop-color="#F7DD43" stop-opacity="0"/>
</linearGradient>
<linearGradient id="paint37_linear_122_130" x1="51.5" y1="349" x2="51.5" y2="660.381" gradientUnits="userSpaceOnUse">
<stop stop-color="#F7DD43"/>
<stop offset="1" stop-color="#F7DD43" stop-opacity="0"/>
</linearGradient>
<linearGradient id="paint38_linear_122_130" x1="51.5" y1="349" x2="51.5" y2="660.381" gradientUnits="userSpaceOnUse">
<stop stop-color="#F7DD43"/>
<stop offset="1" stop-color="#F7DD43" stop-opacity="0"/>
</linearGradient>
<linearGradient id="paint39_linear_122_130" x1="51.5" y1="349" x2="51.5" y2="660.381" gradientUnits="userSpaceOnUse">
<stop stop-color="#F7DD43"/>
<stop offset="1" stop-color="#F7DD43" stop-opacity="0"/>
</linearGradient>
<linearGradient id="paint40_linear_122_130" x1="51.5" y1="349" x2="51.5" y2="660.381" gradientUnits="userSpaceOnUse">
<stop stop-color="#F7DD43"/>
<stop offset="1" stop-color="#F7DD43" stop-opacity="0"/>
</linearGradient>
<linearGradient id="paint41_linear_122_130" x1="51.5" y1="349" x2="51.5" y2="660.381" gradientUnits="userSpaceOnUse">
<stop stop-color="#F7DD43"/>
<stop offset="1" stop-color="#F7DD43" stop-opacity="0"/>
</linearGradient>
<linearGradient id="paint42_linear_122_130" x1="51.5" y1="349" x2="51.5" y2="660.381" gradientUnits="userSpaceOnUse">
<stop stop-color="#F7DD43"/>
<stop offset="1" stop-color="#F7DD43" stop-opacity="0"/>
</linearGradient>
<linearGradient id="paint43_linear_122_130" x1="51.5" y1="349" x2="51.5" y2="660.381" gradientUnits="userSpaceOnUse">
<stop stop-color="#F7DD43"/>
<stop offset="1" stop-color="#F7DD43" stop-opacity="0"/>
</linearGradient>
<linearGradient id="paint44_linear_122_130" x1="51.5" y1="349" x2="51.5" y2="660.381" gradientUnits="userSpaceOnUse">
<stop stop-color="#F7DD43"/>
<stop offset="1" stop-color="#F7DD43" stop-opacity="0"/>
</linearGradient>
<linearGradient id="paint45_linear_122_130" x1="51.5" y1="349" x2="51.5" y2="660.381" gradientUnits="userSpaceOnUse">
<stop stop-color="#F7DD43"/>
<stop offset="1" stop-color="#F7DD43" stop-opacity="0"/>
</linearGradient>
<linearGradient id="paint46_linear_122_130" x1="51.5" y1="349" x2="51.5" y2="660.381" gradientUnits="userSpaceOnUse">
<stop stop-color="#F7DD43"/>
<stop offset="1" stop-color="#F7DD43" stop-opacity="0"/>
</linearGradient>
<linearGradient id="paint47_linear_122_130" x1="937.5" y1="49" x2="937.5" y2="347.818" gradientUnits="userSpaceOnUse">
<stop stop-color="#F7DD43"/>
<stop offset="1" stop-color="#F7DD43" stop-opacity="0"/>
</linearGradient>
<linearGradient id="paint48_linear_122_130" x1="937.5" y1="49" x2="937.5" y2="347.818" gradientUnits="userSpaceOnUse">
<stop stop-color="#F7DD43"/>
<stop offset="1" stop-color="#F7DD43" stop-opacity="0"/>
</linearGradient>
<linearGradient id="paint49_linear_122_130" x1="937.5" y1="49" x2="937.5" y2="347.818" gradientUnits="userSpaceOnUse">
<stop stop-color="#F7DD43"/>
<stop offset="1" stop-color="#F7DD43" stop-opacity="0"/>
</linearGradient>
<linearGradient id="paint50_linear_122_130" x1="937.5" y1="49" x2="937.5" y2="347.818" gradientUnits="userSpaceOnUse">
<stop stop-color="#F7DD43"/>
<stop offset="1" stop-color="#F7DD43" stop-opacity="0"/>
</linearGradient>
<linearGradient id="paint51_linear_122_130" x1="937.5" y1="49" x2="937.5" y2="347.818" gradientUnits="userSpaceOnUse">
<stop stop-color="#F7DD43"/>
<stop offset="1" stop-color="#F7DD43" stop-opacity="0"/>
</linearGradient>
<linearGradient id="paint52_linear_122_130" x1="937.5" y1="49" x2="937.5" y2="347.818" gradientUnits="userSpaceOnUse">
<stop stop-color="#F7DD43"/>
<stop offset="1" stop-color="#F7DD43" stop-opacity="0"/>
</linearGradient>
<linearGradient id="paint53_linear_122_130" x1="937.5" y1="49" x2="937.5" y2="347.818" gradientUnits="userSpaceOnUse">
<stop stop-color="#F7DD43"/>
<stop offset="1" stop-color="#F7DD43" stop-opacity="0"/>
</linearGradient>
<linearGradient id="paint54_linear_122_130" x1="937.5" y1="49" x2="937.5" y2="347.818" gradientUnits="userSpaceOnUse">
<stop stop-color="#F7DD43"/>
<stop offset="1" stop-color="#F7DD43" stop-opacity="0"/>
</linearGradient>
<linearGradient id="paint55_linear_122_130" x1="937.5" y1="49" x2="937.5" y2="347.818" gradientUnits="userSpaceOnUse">
<stop stop-color="#F7DD43"/>
<stop offset="1" stop-color="#F7DD43" stop-opacity="0"/>
</linearGradient>
<linearGradient id="paint56_linear_122_130" x1="937.5" y1="49" x2="937.5" y2="347.818" gradientUnits="userSpaceOnUse">
<stop stop-color="#F7DD43"/>
<stop offset="1" stop-color="#F7DD43" stop-opacity="0"/>
</linearGradient>
<linearGradient id="paint57_linear_122_130" x1="937.5" y1="49" x2="937.5" y2="347.818" gradientUnits="userSpaceOnUse">
<stop stop-color="#F7DD43"/>
<stop offset="1" stop-color="#F7DD43" stop-opacity="0"/>
</linearGradient>
<linearGradient id="paint58_linear_122_130" x1="937.5" y1="49" x2="937.5" y2="347.818" gradientUnits="userSpaceOnUse">
<stop stop-color="#F7DD43"/>
<stop offset="1" stop-color="#F7DD43" stop-opacity="0"/>
</linearGradient>
<linearGradient id="paint59_linear_122_130" x1="937.5" y1="49" x2="937.5" y2="347.818" gradientUnits="userSpaceOnUse">
<stop stop-color="#F7DD43"/>
<stop offset="1" stop-color="#F7DD43" stop-opacity="0"/>
</linearGradient>
<linearGradient id="paint60_linear_122_130" x1="937.5" y1="49" x2="937.5" y2="347.818" gradientUnits="userSpaceOnUse">
<stop stop-color="#F7DD43"/>
<stop offset="1" stop-color="#F7DD43" stop-opacity="0"/>
</linearGradient>
<linearGradient id="paint61_linear_122_130" x1="937.5" y1="49" x2="937.5" y2="347.818" gradientUnits="userSpaceOnUse">
<stop stop-color="#F7DD43"/>
<stop offset="1" stop-color="#F7DD43" stop-opacity="0"/>
</linearGradient>
<linearGradient id="paint62_linear_122_130" x1="937.5" y1="49" x2="937.5" y2="347.818" gradientUnits="userSpaceOnUse">
<stop stop-color="#F7DD43"/>
<stop offset="1" stop-color="#F7DD43" stop-opacity="0"/>
</linearGradient>
<linearGradient id="paint63_linear_122_130" x1="937.5" y1="49" x2="937.5" y2="347.818" gradientUnits="userSpaceOnUse">
<stop stop-color="#F7DD43"/>
<stop offset="1" stop-color="#F7DD43" stop-opacity="0"/>
</linearGradient>
<linearGradient id="paint64_linear_122_130" x1="937.5" y1="49" x2="937.5" y2="347.818" gradientUnits="userSpaceOnUse">
<stop stop-color="#F7DD43"/>
<stop offset="1" stop-color="#F7DD43" stop-opacity="0"/>
</linearGradient>
<linearGradient id="paint65_linear_122_130" x1="937.5" y1="49" x2="937.5" y2="347.818" gradientUnits="userSpaceOnUse">
<stop stop-color="#F7DD43"/>
<stop offset="1" stop-color="#F7DD43" stop-opacity="0"/>
</linearGradient>
<linearGradient id="paint66_linear_122_130" x1="937.5" y1="49" x2="937.5" y2="347.818" gradientUnits="userSpaceOnUse">
<stop stop-color="#F7DD43"/>
<stop offset="1" stop-color="#F7DD43" stop-opacity="0"/>
</linearGradient>
<linearGradient id="paint67_linear_122_130" x1="937.5" y1="49" x2="937.5" y2="347.818" gradientUnits="userSpaceOnUse">
<stop stop-color="#F7DD43"/>
<stop offset="1" stop-color="#F7DD43" stop-opacity="0"/>
</linearGradient>
<linearGradient id="paint68_linear_122_130" x1="937.5" y1="49" x2="937.5" y2="347.818" gradientUnits="userSpaceOnUse">
<stop stop-color="#F7DD43"/>
<stop offset="1" stop-color="#F7DD43" stop-opacity="0"/>
</linearGradient>
<linearGradient id="paint69_linear_122_130" x1="937.5" y1="49" x2="937.5" y2="347.818" gradientUnits="userSpaceOnUse">
<stop stop-color="#F7DD43"/>
<stop offset="1" stop-color="#F7DD43" stop-opacity="0"/>
</linearGradient>
<linearGradient id="paint70_linear_122_130" x1="937.5" y1="49" x2="937.5" y2="347.818" gradientUnits="userSpaceOnUse">
<stop stop-color="#F7DD43"/>
<stop offset="1" stop-color="#F7DD43" stop-opacity="0"/>
</linearGradient>
<linearGradient id="paint71_linear_122_130" x1="937.5" y1="49" x2="937.5" y2="347.818" gradientUnits="userSpaceOnUse">
<stop stop-color="#F7DD43"/>
<stop offset="1" stop-color="#F7DD43" stop-opacity="0"/>
</linearGradient>
<linearGradient id="paint72_linear_122_130" x1="937.5" y1="49" x2="937.5" y2="347.818" gradientUnits="userSpaceOnUse">
<stop stop-color="#F7DD43"/>
<stop offset="1" stop-color="#F7DD43" stop-opacity="0"/>
</linearGradient>
<linearGradient id="paint73_linear_122_130" x1="937.5" y1="49" x2="937.5" y2="347.818" gradientUnits="userSpaceOnUse">
<stop stop-color="#F7DD43"/>
<stop offset="1" stop-color="#F7DD43" stop-opacity="0"/>
</linearGradient>
<linearGradient id="paint74_linear_122_130" x1="937.5" y1="49" x2="937.5" y2="347.818" gradientUnits="userSpaceOnUse">
<stop stop-color="#F7DD43"/>
<stop offset="1" stop-color="#F7DD43" stop-opacity="0"/>
</linearGradient>
<linearGradient id="paint75_linear_122_130" x1="937.5" y1="49" x2="937.5" y2="347.818" gradientUnits="userSpaceOnUse">
<stop stop-color="#F7DD43"/>
<stop offset="1" stop-color="#F7DD43" stop-opacity="0"/>
</linearGradient>
<linearGradient id="paint76_linear_122_130" x1="937.5" y1="49" x2="937.5" y2="347.818" gradientUnits="userSpaceOnUse">
<stop stop-color="#F7DD43"/>
<stop offset="1" stop-color="#F7DD43" stop-opacity="0"/>
</linearGradient>
<linearGradient id="paint77_linear_122_130" x1="937.5" y1="49" x2="937.5" y2="347.818" gradientUnits="userSpaceOnUse">
<stop stop-color="#F7DD43"/>
<stop offset="1" stop-color="#F7DD43" stop-opacity="0"/>
</linearGradient>
<linearGradient id="paint78_linear_122_130" x1="937.5" y1="49" x2="937.5" y2="347.818" gradientUnits="userSpaceOnUse">
<stop stop-color="#F7DD43"/>
<stop offset="1" stop-color="#F7DD43" stop-opacity="0"/>
</linearGradient>
<linearGradient id="paint79_linear_122_130" x1="937.5" y1="49" x2="937.5" y2="347.818" gradientUnits="userSpaceOnUse">
<stop stop-color="#F7DD43"/>
<stop offset="1" stop-color="#F7DD43" stop-opacity="0"/>
</linearGradient>
<linearGradient id="paint80_linear_122_130" x1="937.5" y1="49" x2="937.5" y2="347.818" gradientUnits="userSpaceOnUse">
<stop stop-color="#F7DD43"/>
<stop offset="1" stop-color="#F7DD43" stop-opacity="0"/>
</linearGradient>
<linearGradient id="paint81_linear_122_130" x1="937.5" y1="49" x2="937.5" y2="347.818" gradientUnits="userSpaceOnUse">
<stop stop-color="#F7DD43"/>
<stop offset="1" stop-color="#F7DD43" stop-opacity="0"/>
</linearGradient>
<linearGradient id="paint82_linear_122_130" x1="937.5" y1="49" x2="937.5" y2="347.818" gradientUnits="userSpaceOnUse">
<stop stop-color="#F7DD43"/>
<stop offset="1" stop-color="#F7DD43" stop-opacity="0"/>
</linearGradient>
<linearGradient id="paint83_linear_122_130" x1="937.5" y1="49" x2="937.5" y2="347.818" gradientUnits="userSpaceOnUse">
<stop stop-color="#F7DD43"/>
<stop offset="1" stop-color="#F7DD43" stop-opacity="0"/>
</linearGradient>
<linearGradient id="paint84_linear_122_130" x1="937.5" y1="49" x2="937.5" y2="347.818" gradientUnits="userSpaceOnUse">
<stop stop-color="#F7DD43"/>
<stop offset="1" stop-color="#F7DD43" stop-opacity="0"/>
</linearGradient>
<linearGradient id="paint85_linear_122_130" x1="937.5" y1="49" x2="937.5" y2="347.818" gradientUnits="userSpaceOnUse">
<stop stop-color="#F7DD43"/>
<stop offset="1" stop-color="#F7DD43" stop-opacity="0"/>
</linearGradient>
<linearGradient id="paint86_linear_122_130" x1="937.5" y1="49" x2="937.5" y2="347.818" gradientUnits="userSpaceOnUse">
<stop stop-color="#F7DD43"/>
<stop offset="1" stop-color="#F7DD43" stop-opacity="0"/>
</linearGradient>
<linearGradient id="paint87_linear_122_130" x1="937.5" y1="49" x2="937.5" y2="347.818" gradientUnits="userSpaceOnUse">
<stop stop-color="#F7DD43"/>
<stop offset="1" stop-color="#F7DD43" stop-opacity="0"/>
</linearGradient>
<linearGradient id="paint88_linear_122_130" x1="937.5" y1="49" x2="937.5" y2="347.818" gradientUnits="userSpaceOnUse">
<stop stop-color="#F7DD43"/>
<stop offset="1" stop-color="#F7DD43" stop-opacity="0"/>
</linearGradient>
<linearGradient id="paint89_linear_122_130" x1="937.5" y1="49" x2="937.5" y2="347.818" gradientUnits="userSpaceOnUse">
<stop stop-color="#F7DD43"/>
<stop offset="1" stop-color="#F7DD43" stop-opacity="0"/>
</linearGradient>
<linearGradient id="paint90_linear_122_130" x1="937.5" y1="49" x2="937.5" y2="347.818" gradientUnits="userSpaceOnUse">
<stop stop-color="#F7DD43"/>
<stop offset="1" stop-color="#F7DD43" stop-opacity="0"/>
</linearGradient>
<linearGradient id="paint91_linear_122_130" x1="937.5" y1="49" x2="937.5" y2="347.818" gradientUnits="userSpaceOnUse">
<stop stop-color="#F7DD43"/>
<stop offset="1" stop-color="#F7DD43" stop-opacity="0"/>
</linearGradient>
<linearGradient id="paint92_linear_122_130" x1="937.5" y1="49" x2="937.5" y2="347.818" gradientUnits="userSpaceOnUse">
<stop stop-color="#F7DD43"/>
<stop offset="1" stop-color="#F7DD43" stop-opacity="0"/>
</linearGradient>
<linearGradient id="paint93_linear_122_130" x1="937.5" y1="49" x2="937.5" y2="347.818" gradientUnits="userSpaceOnUse">
<stop stop-color="#F7DD43"/>
<stop offset="1" stop-color="#F7DD43" stop-opacity="0"/>
</linearGradient>
<clipPath id="clip0_122_130">
<rect width="1024" height="753" fill="white"/>
</clipPath>
</defs>
</svg>
